<?xml version="1.0" standalone="no"?><!DOCTYPE svg PUBLIC "-//W3C//DTD SVG 1.1//EN" "http://www.w3.org/Graphics/SVG/1.1/DTD/svg11.dtd"><svg t="1614584332840" class="icon" viewBox="0 0 1681 1024" version="1.1" xmlns="http://www.w3.org/2000/svg" p-id="4950" xmlns:xlink="http://www.w3.org/1999/xlink" width="328.3203125" height="200"><defs><style type="text/css"></style></defs><path d="M312.304985 780.762463c-33.032258-9.008798-60.058651-36.035191-60.058651-72.070381V309.302053c3.002933-36.035191 27.026393-66.064516 60.058651-72.070381l372.363637-81.079179L720.703812 0H291.284457C138.134897 0 15.014663 120.117302 15.014663 270.26393v471.46041c0 150.146628 126.123167 273.266862 276.269794 273.266862H720.703812l-39.038123-159.155425L312.304985 780.762463zM1390.357771 0H957.935484l39.038123 159.155425L1369.337243 240.234604c33.032258 9.008798 60.058651 36.035191 60.058651 72.070381v399.39003c-3.002933 36.035191-27.026393 66.064516-60.058651 72.070381l-372.363636 81.079179-39.038123 159.155425h432.422287c150.146628 0 276.269795-120.117302 276.269795-273.266862V270.26393c-3.002933-150.146628-123.120235-270.26393-276.269795-270.26393zM681.665689 489.478006h318.310851v39.038123H681.665689v-39.038123z" fill="#FD6B08" p-id="4951"></path></svg>