<?xml version="1.0" standalone="no"?><!DOCTYPE svg PUBLIC "-//W3C//DTD SVG 1.1//EN" "http://www.w3.org/Graphics/SVG/1.1/DTD/svg11.dtd"><svg t="1614584287089" class="icon" viewBox="0 0 1654 1024" version="1.1" xmlns="http://www.w3.org/2000/svg" p-id="2688" xmlns:xlink="http://www.w3.org/1999/xlink" width="323.046875" height="200"><defs><style type="text/css"></style></defs><path d="M437.082897 358.805359c0 19.140592 0 31.900986 6.419581 51.041578l19.179976 38.320568c0 6.380197 6.380197 6.380197 6.380197 12.760394s-6.380197 12.760395-12.799779 19.140592l-31.94037 25.560173c-6.419581 0-6.419581 6.380197-12.799778 6.380197-6.419581 0-12.799778 0-19.179976-6.380197-6.419581-6.380197-12.799778-12.760395-19.179976-25.560173-6.419581-6.380197-12.799778-19.140592-19.179976-31.900986C309.16388 480.068491 251.663337 512.008861 187.703828 512.008861c-38.359951 0-83.1001-12.760395-108.699657-38.320567-25.599557-25.520789-44.779533-63.801973-38.399335-102.12254 0-44.700765 19.21936-83.021332 51.199114-108.542122 38.359951-31.900986 89.519681-44.700765 134.299214-44.700765 19.140592 0 38.320568 0 57.500543 6.380198 19.21936 0 44.779533 6.380197 63.959508 12.760394V186.382497c6.419581-31.900986-6.380197-63.801973-25.599557-89.401529-25.560173-19.140592-57.500543-25.520789-89.480297-25.520789-19.21936 0-38.399335 0-57.579311 6.380197l-57.539927 19.179976c-6.380197 0-12.799778 6.380197-19.179976 6.380197H91.764566c-6.380197 0-12.760395-6.380197-12.760395-19.140592v-19.179976c0-6.380197 0-12.760395 6.380197-19.140591 6.380197-6.380197 12.799778-6.380197 12.799779-12.760395A312.038907 312.038907 0 0 1 168.523852 7.618822c12.799778 0 44.740149-6.380197 70.339706-6.380197C290.023288-5.102189 341.183018 13.999019 385.923167 45.93939c31.979754 38.320568 51.199114 82.981948 44.779532 134.06291v178.803059h6.380198z m-230.199093 82.981949c19.179976 0 38.359951-6.380197 57.539927-12.760395a139.26159 139.26159 0 0 0 51.199114-31.94037c6.380197-6.380197 12.760395-19.140592 19.140592-31.900987 6.419581-19.179976 6.419581-38.320568 6.419581-51.080962v-25.560173c-19.179976-6.380197-31.979754-6.380197-51.199114-6.380197-19.140592 0-31.94037-6.380197-51.120346-6.380197a177.227702 177.227702 0 0 0-83.1001 19.140592c-19.21936 12.760395-25.599557 38.320568-25.599557 57.500543 0 19.140592 6.380197 44.661381 19.179976 57.421775 12.760395 25.560173 38.359951 31.900986 57.539927 31.900987z m447.637791 57.461159c-6.380197 0-12.799778 0-19.179976-6.380197-6.419581-6.380197-12.799778-12.799778-12.799778-19.179976L494.662208 52.319587c0-6.380197-6.419581-12.760395-6.419581-19.140592 0-6.380197 0-6.380197 6.419581-12.799778 0 0 6.380197-6.380197 12.760394-6.380198h57.579311c6.380197 0 12.760395 0 19.179976 6.380198 6.380197 6.419581 6.380197 12.799778 12.799779 19.179975l95.899878 357.527351 89.519682-357.527351c0-6.380197 6.419581-12.760395 12.799778-19.179975 6.380197-6.380197 12.799778-6.380197 25.599557-6.380198h44.740149c6.380197 0 12.799778 0 25.599557 6.380198 6.380197 6.419581 6.380197 12.799778 12.760394 19.179975l89.519682 363.907548 95.939262-363.907548c0-6.380197 6.380197-12.760395 12.799779-19.179975 6.380197-6.380197 12.760395-6.380197 19.179975-6.380198h51.15973c6.380197 0 6.380197 0 12.760395 6.380198 0 0 6.419581 6.419581 6.419581 12.799778v6.380197c0 6.380197 0 6.380197-6.419581 12.760395l-134.299214 421.408091c0 6.340813-6.380197 12.760395-12.760395 19.140592-6.380197 6.380197-12.799778 6.380197-19.179975 6.380197h-51.15973c-6.380197 0-12.799778 0-25.599557-6.380197-6.380197-6.380197-6.380197-12.799778-12.760395-19.179976l-89.519681-351.147153-83.139484 351.147153c0 6.380197-6.419581 12.799778-12.799779 19.179976-6.380197 6.380197-12.799778 6.380197-25.599557 6.380197H654.560979zM1377.138011 512.008861c-31.979754 0-57.579311 0-83.139484-6.380197a806.031588 806.031588 0 0 1-63.959508-19.140592 35.091085 35.091085 0 0 1-19.179976-31.94037v-31.900986c0-12.799778 6.380197-19.179976 12.799778-19.179976h12.760395l12.799778 6.380197c19.179976 6.380197 38.359951 12.760395 63.959509 19.179976 19.179976 6.380197 44.740149 6.380197 70.339705 6.380197 25.599557 0 57.539927-6.380197 83.100101-19.179975 19.21936-12.760395 32.019138-31.900986 32.019138-51.080963 0-12.760395-6.419581-25.520789-12.799779-38.281183-38.359951-6.380197-57.539927-19.179976-76.759287-25.560173l-83.1001-25.520789c-31.979754-6.380197-63.959508-25.560173-89.559065-57.500543a122.562802 122.562802 0 0 1-25.560173-76.562368c0-19.179976 6.380197-44.700765 12.799778-57.500543a149.265109 149.265109 0 0 1 44.740149-44.661381c19.179976-12.760395 38.399335-19.179976 57.579311-25.560173 19.179976-6.380197 44.740149-12.760395 63.920125-12.760394h38.399335c12.760395 0 25.560173 6.380197 38.359951 6.380197 12.760395 0 19.179976 6.380197 31.979755 6.380197 6.380197 0 12.760395 6.380197 25.560173 6.380198 6.380197 6.419581 12.799778 6.419581 19.179975 12.799778 6.419581 6.380197 6.419581 12.760395 6.419582 19.140592v25.520789c0 12.799778-6.419581 19.179976-12.799779 19.179976-6.419581 0-12.799778 0-19.179976-6.380198-31.979754-12.799778-70.339706-19.179976-108.699657-19.179975-25.599557 0-51.199114 6.380197-76.759287 12.799778-19.179976 19.140592-31.979754 31.900986-31.979754 57.461159 0 12.760395 6.419581 25.520789 19.179976 38.281184 19.179976 12.760395 38.359951 25.560173 63.959508 31.900986l76.719903 25.599557c31.979754 6.340813 63.959508 25.520789 89.559066 51.041578 19.179976 25.560173 25.560173 51.080962 25.560173 76.601751 0 19.179976-6.380197 44.700765-12.799779 63.880741-12.760395 19.140592-25.599557 38.281184-38.359951 51.041578-19.179976 12.799778-38.359951 25.560173-63.959509 31.94037h-83.1001z" fill="#252F3E" p-id="2689"></path><path d="M1560.391455 762.214992C1371.191037 929.99055 1097.275778 1024 862.508149 1024 549.405876 1024 242.920103 883.005517 8.11309 627.955162c-19.573815-20.12519 0-46.985033 19.573815-33.555111 260.879177 181.244863 554.368251 275.214929 854.395059 275.214929 221.731547 0 443.463094-53.719686 652.197943-161.080289 32.609897-13.469305 58.682061 26.820459 26.072164 53.680301z" fill="#FF9900" p-id="2690"></path><path d="M1569.843599 713.654602c-26.111548-33.082504-156.511753-13.233002-215.193814-6.616501-19.534431 0-19.534431-13.233002-6.498349-26.426619 104.32804-72.702742 280.374224-52.892623 299.908655-26.466004 19.573815 26.466003-6.498349 204.914607-104.32804 284.194466-12.996698 13.233002-32.570513 6.616501-19.534431-13.193618 19.534431-52.892623 71.678759-178.448604 45.645979-211.491724z" fill="#FF9900" p-id="2691"></path><path d="M437.082897 358.805359c0 19.140592 0 31.900986 6.419581 51.041578l19.179976 38.320568c0 6.380197 6.380197 6.380197 6.380197 12.760394s-6.380197 12.760395-12.799779 19.140592l-31.94037 25.560173c-6.419581 0-6.419581 6.380197-12.799778 6.380197-6.419581 0-12.799778 0-19.179976-6.380197-6.419581-6.380197-12.799778-12.760395-19.179976-25.560173-6.419581-6.380197-12.799778-19.140592-19.179976-31.900986C309.16388 480.068491 251.663337 512.008861 187.703828 512.008861c-38.359951 0-83.1001-12.760395-108.699657-38.320567-25.599557-25.520789-44.779533-63.801973-38.399335-102.12254 0-44.700765 19.21936-83.021332 51.199114-108.542122 38.359951-31.900986 89.519681-44.700765 134.299214-44.700765 19.140592 0 38.320568 0 57.500543 6.380198 19.21936 0 44.779533 6.380197 63.959508 12.760394V186.382497c6.419581-31.900986-6.380197-63.801973-25.599557-89.401529-25.560173-19.140592-57.500543-25.520789-89.480297-25.520789-19.21936 0-38.399335 0-57.579311 6.380197l-57.539927 19.179976c-6.380197 0-12.799778 6.380197-19.179976 6.380197H91.764566c-6.380197 0-12.760395-6.380197-12.760395-19.140592v-19.179976c0-6.380197 0-12.760395 6.380197-19.140591 6.380197-6.380197 12.799778-6.380197 12.799779-12.760395A312.038907 312.038907 0 0 1 168.523852 7.618822c12.799778 0 44.740149-6.380197 70.339706-6.380197C290.023288-5.102189 341.183018 13.999019 385.923167 45.93939c31.979754 38.320568 51.199114 82.981948 44.779532 134.06291v178.803059h6.380198z m-230.199093 82.981949c19.179976 0 38.359951-6.380197 57.539927-12.760395a139.26159 139.26159 0 0 0 51.199114-31.94037c6.380197-6.380197 12.760395-19.140592 19.140592-31.900987 6.419581-19.179976 6.419581-38.320568 6.419581-51.080962v-25.560173c-19.179976-6.380197-31.979754-6.380197-51.199114-6.380197-19.140592 0-31.94037-6.380197-51.120346-6.380197a177.227702 177.227702 0 0 0-83.1001 19.140592c-19.21936 12.760395-25.599557 38.320568-25.599557 57.500543 0 19.140592 6.380197 44.661381 19.179976 57.421775 12.760395 25.560173 38.359951 31.900986 57.539927 31.900987z m447.637791 57.461159c-6.380197 0-12.799778 0-19.179976-6.380197-6.419581-6.380197-12.799778-12.799778-12.799778-19.179976L494.662208 52.319587c0-6.380197-6.419581-12.760395-6.419581-19.140592 0-6.380197 0-6.380197 6.419581-12.799778 0 0 6.380197-6.380197 12.760394-6.380198h57.579311c6.380197 0 12.760395 0 19.179976 6.380198 6.380197 6.419581 6.380197 12.799778 12.799779 19.179975l95.899878 357.527351 89.519682-357.527351c0-6.380197 6.419581-12.760395 12.799778-19.179975 6.380197-6.380197 12.799778-6.380197 25.599557-6.380198h44.740149c6.380197 0 12.799778 0 25.599557 6.380198 6.380197 6.419581 6.380197 12.799778 12.760394 19.179975l89.519682 363.907548 95.939262-363.907548c0-6.380197 6.380197-12.760395 12.799779-19.179975 6.380197-6.380197 12.760395-6.380197 19.179975-6.380198h51.15973c6.380197 0 6.380197 0 12.760395 6.380198 0 0 6.419581 6.419581 6.419581 12.799778v6.380197c0 6.380197 0 6.380197-6.419581 12.760395l-134.299214 421.408091c0 6.340813-6.380197 12.760395-12.760395 19.140592-6.380197 6.380197-12.799778 6.380197-19.179975 6.380197h-51.15973c-6.380197 0-12.799778 0-25.599557-6.380197-6.380197-6.380197-6.380197-12.799778-12.760395-19.179976l-89.519681-351.147153-83.139484 351.147153c0 6.380197-6.419581 12.799778-12.799779 19.179976-6.380197 6.380197-12.799778 6.380197-25.599557 6.380197H654.560979zM1377.138011 512.008861c-31.979754 0-57.579311 0-83.139484-6.380197a806.031588 806.031588 0 0 1-63.959508-19.140592 35.091085 35.091085 0 0 1-19.179976-31.94037v-31.900986c0-12.799778 6.380197-19.179976 12.799778-19.179976h12.760395l12.799778 6.380197c19.179976 6.380197 38.359951 12.760395 63.959509 19.179976 19.179976 6.380197 44.740149 6.380197 70.339705 6.380197 25.599557 0 57.539927-6.380197 83.100101-19.179975 19.21936-12.760395 32.019138-31.900986 32.019138-51.080963 0-12.760395-6.419581-25.520789-12.799779-38.281183-38.359951-6.380197-57.539927-19.179976-76.759287-25.560173l-83.1001-25.520789c-31.979754-6.380197-63.959508-25.560173-89.559065-57.500543a122.562802 122.562802 0 0 1-25.560173-76.562368c0-19.179976 6.380197-44.700765 12.799778-57.500543a149.265109 149.265109 0 0 1 44.740149-44.661381c19.179976-12.760395 38.399335-19.179976 57.579311-25.560173 19.179976-6.380197 44.740149-12.760395 63.920125-12.760394h38.399335c12.760395 0 25.560173 6.380197 38.359951 6.380197 12.760395 0 19.179976 6.380197 31.979755 6.380197 6.380197 0 12.760395 6.380197 25.560173 6.380198 6.380197 6.419581 12.799778 6.419581 19.179975 12.799778 6.419581 6.380197 6.419581 12.760395 6.419582 19.140592v25.520789c0 12.799778-6.419581 19.179976-12.799779 19.179976-6.419581 0-12.799778 0-19.179976-6.380198-31.979754-12.799778-70.339706-19.179976-108.699657-19.179975-25.599557 0-51.199114 6.380197-76.759287 12.799778-19.179976 19.140592-31.979754 31.900986-31.979754 57.461159 0 12.760395 6.419581 25.520789 19.179976 38.281184 19.179976 12.760395 38.359951 25.560173 63.959508 31.900986l76.719903 25.599557c31.979754 6.340813 63.959508 25.520789 89.559066 51.041578 19.179976 25.560173 25.560173 51.080962 25.560173 76.601751 0 19.179976-6.380197 44.700765-12.799779 63.880741-12.760395 19.140592-25.599557 38.281184-38.359951 51.041578-19.179976 12.799778-38.359951 25.560173-63.959509 31.94037h-83.1001z" fill="#252F3E" p-id="2692"></path><path d="M1560.391455 762.214992C1371.191037 929.99055 1097.275778 1024 862.508149 1024 549.405876 1024 242.920103 883.005517 8.11309 627.955162c-19.573815-20.12519 0-46.985033 19.573815-33.555111 260.879177 181.244863 554.368251 275.214929 854.395059 275.214929 221.731547 0 443.463094-53.719686 652.197943-161.080289 32.609897-13.469305 58.682061 26.820459 26.072164 53.680301z" fill="#FF9900" p-id="2693"></path><path d="M1569.843599 713.654602c-26.111548-33.082504-156.511753-13.233002-215.193814-6.616501-19.534431 0-19.534431-13.233002-6.498349-26.426619 104.32804-72.702742 280.374224-52.892623 299.908655-26.466004 19.573815 26.466003-6.498349 204.914607-104.32804 284.194466-12.996698 13.233002-32.570513 6.616501-19.534431-13.193618 19.534431-52.892623 71.678759-178.448604 45.645979-211.491724z" fill="#FF9900" p-id="2694"></path></svg>