<?xml version="1.0" standalone="no"?><!DOCTYPE svg PUBLIC "-//W3C//DTD SVG 1.1//EN" "http://www.w3.org/Graphics/SVG/1.1/DTD/svg11.dtd"><svg t="1614584779390" class="icon" viewBox="0 0 1024 1024" version="1.1" xmlns="http://www.w3.org/2000/svg" p-id="7218" xmlns:xlink="http://www.w3.org/1999/xlink" width="200" height="200"><defs><style type="text/css"></style></defs><path d="M421.8 476.3c-35.9-18.4-70.8-27.8-103.7-27.8-4.5 0-9 0.1-13.5 0.5-42 3.5-80.4 14.6-105.1 23.2-6.5 2.4-13.3 4.9-20.2 7.8l-67.6 234.2c46.4-17.2 87.5-25.5 125.1-25.5 60.8 0 105 22.7 141.4 46.1 17.3-58.6 58.7-200.2 71.1-242.5-9-5.5-18.1-11-27.5-16z m72.9 59.5l-68 236.3c20.2 11.6 88.1 48.2 140.1 48.2 42 0 88.9-10.8 143.6-33l65-227.2c-44.1 14.2-86.4 21.4-126 21.4-72.2 0.1-122.8-23.3-154.7-45.7zM332 368.6c58 0.6 100.9 22.7 136.5 45.5l69.8-238.7c-14.7-8.4-53.3-29.4-81.1-36.6-18.3-4.3-37.6-6.5-58.1-6.5-39 0.7-81.5 10.5-130.1 29.9L202.4 396c48.7-18.4 90.8-27.3 129.5-27.3h0.1v-0.1z m535.6-128.4c-44.2 17.2-87.4 25.9-128.7 25.9-69 0-119.8-23.9-152.8-46.9L517 458.6c46.5 29.9 96.5 45 149 45 42.8 0 87.2-10.3 132-30.6l-0.1-1.7 2.8-0.7 66.9-230.4z" fill="#333333" p-id="7219"></path></svg>