<svg t="1610804808732" class="icon" viewBox="0 0 1024 1024" version="1.1" xmlns="http://www.w3.org/2000/svg" p-id="8445" width="200" height="200"><path d="M185.173333 616.96c36.693333-212.309333 132.949333-290.133333 246.784-322.730667C574.293333 256 699.733333 283.648 819.2 226.645333c72.362667-34.133333 69.973333 27.306667 68.266667 36.693334-17.066667 142.506667-93.696 276.48-253.952 341.333333-174.421333 69.290667-347.477333-60.074667-472.064 142.848a6.144 6.144 0 0 1-4.778667 2.389333h-15.36a5.290667 5.290667 0 0 1-4.778667-7.168 666.965333 666.965333 0 0 1 201.728-237.226666 971.776 971.776 0 0 1 277.504-137.557334c8.362667-2.389333 4.778667-15.530667-3.584-14.336a820.565333 820.565333 0 0 0-225.28 83.114667 672.597333 672.597333 0 0 0-201.728 180.224" fill="#6DD77F" p-id="8446"></path></svg>