<?xml version="1.0" standalone="no"?><!DOCTYPE svg PUBLIC "-//W3C//DTD SVG 1.1//EN" "http://www.w3.org/Graphics/SVG/1.1/DTD/svg11.dtd"><svg t="1612589971207" class="icon" viewBox="0 0 1024 1024" version="1.1" xmlns="http://www.w3.org/2000/svg" p-id="4124" xmlns:xlink="http://www.w3.org/1999/xlink" width="200" height="200"><defs><style type="text/css"></style></defs><path d="M343.739733 268.168533a75.656533 75.656533 0 0 0-75.5712 75.5712v17.937067a75.741867 75.741867 0 0 0 75.656534 75.656533h93.5936v-93.525333a75.8272 75.8272 0 0 0-75.741867-75.639467h-17.92m308.2752 0a75.741867 75.741867 0 0 0-75.656533 75.656534v93.5936h93.5936a75.741867 75.741867 0 0 0 75.639466-75.656534v-17.885866a75.8272 75.8272 0 0 0-75.639466-75.707734h-17.937067M343.722667 576.375467a75.707733 75.707733 0 0 0-75.5712 75.656533v17.92a75.656533 75.656533 0 0 0 75.5712 75.605333h17.937066a75.741867 75.741867 0 0 0 75.656534-75.6736v-93.525333h-93.5936m0-359.389867h17.937066a126.907733 126.907733 0 0 1 126.941867 126.7712v144.7936h-144.7936a126.8736 126.8736 0 0 1-126.856533-126.856533v-17.92a126.788267 126.788267 0 0 1 126.7712-126.788267z m308.292266 0h17.92c70.024533 0 126.805333 56.763733 126.856534 126.856534v17.92a126.856533 126.856533 0 0 1-126.839467 126.8736h-144.7936v-144.7936a126.8736 126.8736 0 0 1 126.856533-126.856534zM343.722667 525.175467h144.7936v144.725333a126.805333 126.805333 0 0 1-126.856534 126.839467h-17.92a126.788267 126.788267 0 0 1-126.788266-126.7712v-17.937067a126.805333 126.805333 0 0 1 126.7712-126.856533z m-126.7712 126.856533z" fill="#10D5AF" p-id="4125"></path><path d="M574.395733 574.4128v94.583467a76.629333 76.629333 0 0 0 76.526934 76.544h18.005333A76.663467 76.663467 0 0 0 745.472 669.013333v-18.056533a76.578133 76.578133 0 0 0-76.458667-76.526933h-94.600533m-51.2-51.2h145.783467c70.5024 0 127.658667 57.156267 127.658666 127.726933V669.013333c0 70.5024-57.156267 127.658667-127.658666 127.744H650.922667a127.744 127.744 0 0 1-127.726934-127.744v-145.783466z" fill="#1892EE" p-id="4126"></path></svg>