<?xml version="1.0" standalone="no"?><!DOCTYPE svg PUBLIC "-//W3C//DTD SVG 1.1//EN" "http://www.w3.org/Graphics/SVG/1.1/DTD/svg11.dtd"><svg t="1614581902455" class="icon" viewBox="0 0 1024 1024" version="1.1" xmlns="http://www.w3.org/2000/svg" p-id="3255" xmlns:xlink="http://www.w3.org/1999/xlink" width="200" height="200"><defs><style type="text/css"></style></defs><path d="M384 42.666667H85.333333C38.4 42.666667 0 81.066667 0 128v768c0 46.933333 38.4 85.333333 85.333333 85.333333h298.666667c46.933333 0 85.333333-38.4 85.333333-85.333333V128c0-46.933333-38.4-85.333333-85.333333-85.333333zM277.333333 469.333333h-85.333333c-25.6 0-42.666667-17.066667-42.666667-42.666666s17.066667-42.666667 42.666667-42.666667h85.333333c25.6 0 42.666667 17.066667 42.666667 42.666667s-17.066667 42.666667-42.666667 42.666666z m0-170.666666h-85.333333c-25.6 0-42.666667-17.066667-42.666667-42.666667s17.066667-42.666667 42.666667-42.666667h85.333333c25.6 0 42.666667 17.066667 42.666667 42.666667s-17.066667 42.666667-42.666667 42.666667zM938.666667 42.666667h-298.666667c-46.933333 0-85.333333 38.4-85.333333 85.333333v768c0 46.933333 38.4 85.333333 85.333333 85.333333h298.666667c46.933333 0 85.333333-38.4 85.333333-85.333333V128c0-46.933333-38.4-85.333333-85.333333-85.333333z m-106.666667 426.666666h-85.333333c-25.6 0-42.666667-17.066667-42.666667-42.666666s17.066667-42.666667 42.666667-42.666667h85.333333c25.6 0 42.666667 17.066667 42.666667 42.666667s-17.066667 42.666667-42.666667 42.666666z m0-170.666666h-85.333333c-25.6 0-42.666667-17.066667-42.666667-42.666667s17.066667-42.666667 42.666667-42.666667h85.333333c25.6 0 42.666667 17.066667 42.666667 42.666667s-17.066667 42.666667-42.666667 42.666667z" p-id="3256"></path></svg>