<?xml version="1.0" standalone="no"?><!DOCTYPE svg PUBLIC "-//W3C//DTD SVG 1.1//EN" "http://www.w3.org/Graphics/SVG/1.1/DTD/svg11.dtd"><svg t="1616803374711" class="icon" viewBox="0 0 1024 1024" version="1.1" xmlns="http://www.w3.org/2000/svg" p-id="7145" xmlns:xlink="http://www.w3.org/1999/xlink" width="200" height="200"><defs><style type="text/css"></style></defs><path d="M601.132289 280.136049zM609.708353 328.125554c0 0.109556 0.006143 0.218088 0.006143 0.329691v-0.097269c0.001024-0.076791-0.006143-0.154607-0.006143-0.232422zM608.734638 311.924616c0.086006 0.751532 0.146416 1.518422 0.222183 2.272002-0.0686-0.75358-0.135153-1.52047-0.222183-2.272002zM607.291983 302.654359c0.198634 1.05153 0.396244 2.099989 0.570304 3.153567-0.169965-1.057674-0.37167-2.102037-0.570304-3.153567zM594.771914 351.958533v-29.311789c0-55.055338-31.452733-103.588526-76.550787-132.213289 37.777273 18.351097 68.351513 50.303486 82.67874 89.075976-22.708753-61.619467-86.388277-106.076567-154.874942-106.076567-85.564049 0-166.619931 69.361064-166.61993 154.926136v209.975331h37.182395V337.014926c0-65.544019 50.127378-118.673429 115.66423-118.673428 21.102277 0 35.158174 5.537172 52.227366 15.196506 44.810341 15.838482 76.924504 58.550882 76.924505 108.78372v21.51695c0 7.129314 3.907146 13.434399 9.90609 17.349737 13.069896-0.851873 23.462332-13.59003 23.462333-29.229878zM609.376614 319.071336c0.054266 0.786344 0.101365 1.572688 0.14232 2.363127-0.040955-0.790439-0.09215-1.576783-0.14232-2.363127zM603.191323 286.254787zM605.85752 295.830163c0.275425 1.159038 0.51911 2.327291 0.775081 3.495545-0.249828-1.168253-0.499656-2.33753-0.775081-3.495545z" fill="#ECECEC" p-id="7146"></path><path d="M316.58739 337.014926v201.413602h16.985234V342.418993c0-63.718432 48.731822-115.373446 112.451277-115.373446 13.651463 0 26.741837 2.385653 38.893308 6.737165l-0.439247-0.244708c-17.069192-9.659334-31.124066-15.196506-52.227366-15.196506-65.535828 0-115.663206 53.12941-115.663206 118.673428zM609.518934 321.434463c-0.040955-0.790439-0.088054-1.576783-0.14232-2.363127a134.204745 134.204745 0 0 0-0.419793-4.874718c-0.075768-0.75358-0.135153-1.52047-0.222183-2.272002a143.850769 143.850769 0 0 0-0.872351-6.11669c-0.174061-1.053578-0.372694-2.102037-0.570304-3.153567a152.92444 152.92444 0 0 0-0.659382-3.328651c-0.255971-1.168253-0.499656-2.336506-0.775081-3.495545-0.204777-0.839586-0.431056-1.6761-0.648119-2.513638a138.384245 138.384245 0 0 0-2.018078-7.061738c-0.176108-0.564161-0.344025-1.12525-0.527301-1.686339a145.012879 145.012879 0 0 0-1.531733-4.431375c-0.07372-0.21092-0.156654-0.418769-0.232422-0.627642-14.327227-38.771466-44.901467-70.724879-82.67874-89.075976 45.098053 28.624762 76.550786 77.15795 76.550787 132.213289v29.311789c0 15.638824-10.392436 28.376982-23.462333 29.229878-0.040955 0.002048-0.081911 0.011263-0.124914 0.015358 4.01875 2.660054 8.981522 4.251172 14.37535 4.251172 13.341226 0 24.155503-12.759659 24.155503-28.499848V328.455245c0-0.111604-0.006143-0.220135-0.006143-0.329691a138.14056 138.14056 0 0 0-0.190443-6.691091z" fill="#A7A7A7" p-id="7147"></path><path d="M589.901291 389.671301c-17.788984 0-32.260579-13.272625-32.260579-29.586191v-21.87019c0-60.382613-49.128066-109.507607-109.511702-109.507607-54.564897 0-97.912106 41.309677-103.068393 98.223367-0.386005 4.247076-4.141616 7.37095-8.384597 6.991089a7.717024 7.717024 0 0 1-6.991089-8.382549c5.895532-65.054602 55.707553-112.271074 118.445102-112.271074 68.898267 0 124.95087 56.050554 124.95087 124.946774v21.87019c0 7.800982 7.547059 14.147024 16.821412 14.147024 9.283568 0 16.834723-9.531348 16.834722-21.24562V324.03206c0-13.106756-1.925928-26.170509-5.720447-38.829827a7.719071 7.719071 0 0 1 5.177788-9.611211c4.086326-1.228662 8.384597 1.096581 9.610188 5.176764a150.552098 150.552098 0 0 1 6.371638 43.265298v28.954453c-0.001024 20.225831-14.478762 36.683763-32.274913 36.683764z" fill="" p-id="7148"></path><path d="M344.555842 545.103236h-67.408515V324.031037c0-64.406482 43.195674-125.682948 107.488506-152.481099a7.720095 7.720095 0 0 1 5.940582 14.250436c-58.610268 24.42888-97.989921 79.979778-97.989921 138.230663v205.633033h36.531205V369.601101a7.720095 7.720095 0 0 1 15.438143 0v175.502135zM552.017534 210.383861a7.683235 7.683235 0 0 1-4.712944-1.609548c-28.751724-22.21012-63.974403-34.441455-99.17558-34.441454-7.579823 0-15.171933 0.568256-22.566433 1.690434-4.198954 0.634809-8.149103-2.258691-8.790056-6.47505a7.720095 7.720095 0 0 1 6.475051-8.790056 166.378294 166.378294 0 0 1 24.881438-1.865519c38.597405 0 77.171261 13.376038 108.613755 37.661574a7.721119 7.721119 0 0 1-4.725231 13.829619zM589.754875 250.913338a7.717024 7.717024 0 0 1-6.459692-3.483258 794.278017 794.278017 0 0 1-2.572-3.948102c-4.792807-7.387333-6.405427-9.875374-13.81938-16.885917a7.720095 7.720095 0 0 1 10.6095-11.217687c8.753196 8.278113 11.075368 11.85864 16.163053 19.702625 0.757675 1.170301 1.58907 2.451181 2.523878 3.873358a7.718048 7.718048 0 0 1-2.216712 10.689363 7.654567 7.654567 0 0 1-4.228647 1.269618z" fill="" p-id="7149"></path><path d="M680.196714 819.348873c0 17.235062-12.87331 31.21212-28.751724 31.21212H282.41317c-15.880461 0-28.756843-13.976035-28.756844-31.21212V481.230198c0-17.237109 12.876382-31.209049 28.756844-31.209048h369.03182c15.878414 0 28.751724 13.971939 28.751724 31.209048v338.118675z" fill="#FDD72C" p-id="7150"></path><path d="M648.986641 450.02115h-80.625849c17.235062 0 31.210072 13.971939 31.210072 31.209048v338.118675c0 17.235062-13.973987 31.21212-31.210072 31.21212h80.625849c17.235062 0 31.210072-13.976035 31.210073-31.21212V481.230198c0-17.237109-13.973987-31.209049-31.210073-31.209048z" fill="#F97C21" p-id="7151"></path><path d="M382.548131 667.844561m-15.605037 0a15.605036 15.605036 0 1 0 31.210073 0 15.605036 15.605036 0 1 0-31.210073 0Z" fill="" p-id="7152"></path><path d="M533.399203 667.844561m-15.605036 0a15.605036 15.605036 0 1 0 31.210073 0 15.605036 15.605036 0 1 0-31.210073 0Z" fill="" p-id="7153"></path><path d="M491.490553 691.989825c0.255971-2.308861-1.651527-4.199978-3.977794-4.199977h-67.308174c-2.321148 0-4.226599 1.891116-3.974723 4.199977 2.08975 18.932664 18.139152 33.661254 37.632905 33.661254 19.491705-0.001024 35.541107-14.72859 37.627786-33.661254z" fill="" p-id="7154"></path><path d="M466.069528 714.178444c0 3.413634-5.689731 6.188363-12.706417 6.188363-7.019758 0-12.711536-2.773705-12.711536-6.188363 0-3.417729 5.691779-6.188363 12.711536-6.188363 7.016686 0.001024 12.706417 2.770634 12.706417 6.188363z" fill="#FD631F" p-id="7155"></path><path d="M860.48449 324.294175c-10.353528 0-18.777033-8.419409-18.777033-18.766794 0-10.351481 8.423505-18.772937 18.777033-18.772937 10.349433 0 18.77089 8.421457 18.770889 18.772937 0.001024 10.347385-8.421457 18.766794-18.770889 18.766794z m0-33.128834c-7.921801 0-14.366135 6.44331-14.366135 14.36204 0 7.915657 6.444334 14.355896 14.366135 14.355896 7.917705 0 14.359992-6.440239 14.359991-14.355896 0-7.918729-6.442286-14.362039-14.359991-14.36204zM781.000272 296.62777a3.740253 3.740253 0 0 1-3.739229-3.738206v-3.746396c0-2.252548-1.824564-4.076087-4.084279-4.076088a4.078135 4.078135 0 0 0-4.079159 4.076088v3.746396a3.738205 3.738205 0 0 1-3.739229 3.738206h-3.739229a4.082231 4.082231 0 1 0 0 8.163437h3.739229a3.739229 3.739229 0 0 1 3.739229 3.73923v3.739229c0 2.252548 1.828659 4.079159 4.079159 4.079159a4.079159 4.079159 0 0 0 4.084279-4.079159V308.530437a3.740253 3.740253 0 0 1 3.739229-3.73923h3.743325a4.085302 4.085302 0 0 0 4.081207-4.084278c0-2.252548-1.832755-4.079159-4.081207-4.079159h-3.743325z" fill="#FD5C1E" p-id="7156"></path><path d="M940.395668 229.936999a6.244677 6.244677 0 0 1-6.248772-6.248772v-6.251844a6.822148 6.822148 0 0 0-6.821124-6.817028 6.821124 6.821124 0 0 0-6.817029 6.817028v6.251844a6.247748 6.247748 0 0 1-6.25082 6.248772h-6.252868a6.819076 6.819076 0 0 0-6.817028 6.823172 6.814981 6.814981 0 0 0 6.817028 6.814981h6.252868a6.247748 6.247748 0 0 1 6.25082 6.249796v6.255939a6.817028 6.817028 0 0 0 6.817029 6.811909 6.818052 6.818052 0 0 0 6.821124-6.811909v-6.255939a6.244677 6.244677 0 0 1 6.248772-6.249796h6.25082a6.808837 6.808837 0 0 0 6.81498-6.814981 6.813957 6.813957 0 0 0-6.81498-6.823172h-6.25082z" fill="#FED62C" p-id="7157"></path><path d="M685.085766 347.311117a3.324556 3.324556 0 0 0-3.325579 3.333771l-0.008191 14.648727c0 1.834803 1.49692 3.32558 3.340938 3.329675a3.337866 3.337866 0 0 0 3.327627-3.329675v-14.648727a3.334795 3.334795 0 0 0-3.334795-3.333771zM685.085766 397.926888a3.336842 3.336842 0 0 0-3.33377 3.329675l0.008191 14.652823a3.329675 3.329675 0 0 0 6.65935 0v-14.652823a3.331723 3.331723 0 0 0-3.333771-3.329675zM670.019294 372.91337a3.324556 3.324556 0 0 0 4.708848 0 3.324556 3.324556 0 0 0 0-4.708849l-10.360695-10.359672a3.330699 3.330699 0 0 0-4.710897 4.707825l10.362744 10.360696zM700.152239 393.636809a3.315341 3.315341 0 0 0-4.701681 0 3.327627 3.327627 0 0 0 0 4.708848l10.362743 10.359672a3.329675 3.329675 0 0 0 4.703729-4.710896l-10.364791-10.357624zM670.432944 383.276113a3.324556 3.324556 0 0 0-3.327628-3.327627h-14.650775a3.32558 3.32558 0 0 0-3.331723 3.327627 3.332747 3.332747 0 0 0 3.331723 3.329675h14.650775a3.32558 3.32558 0 0 0 3.327628-3.329675zM717.719039 379.948486h-14.652822a3.326603 3.326603 0 0 0-3.32558 3.329675 3.324556 3.324556 0 0 0 3.329675 3.327627h14.648727a3.329675 3.329675 0 0 0 3.331723-3.329675 3.317388 3.317388 0 0 0-3.331723-3.327627zM670.019294 393.636809l-10.362744 10.357624a3.333771 3.333771 0 0 0 0 4.710896 3.327627 3.327627 0 0 0 4.710897 0l10.360695-10.359672a3.324556 3.324556 0 0 0 0-4.708848 3.324556 3.324556 0 0 0-4.708848 0zM700.158382 372.91337l10.357624-10.360696a3.331723 3.331723 0 0 0 0-4.707825 3.317388 3.317388 0 0 0-4.703729 0l-10.362743 10.359672a3.327627 3.327627 0 0 0 0 4.708849 3.32046 3.32046 0 0 0 4.708848 0z" fill="#FED62C" p-id="7158"></path><path d="M866.311421 850.559969h47.141728" fill="#FEDEBB" p-id="7159"></path><path d="M913.453149 860.485514h-47.141728c-5.481882 0-9.925544-4.443662-9.925544-9.925545s4.443662-9.925544 9.925544-9.925544h47.141728c5.481882 0 9.925544 4.443662 9.925545 9.925544s-4.443662 9.925544-9.925545 9.925545z" fill="" p-id="7160"></path><path d="M791.535028 850.559969h27.959237" fill="#FEDEBB" p-id="7161"></path><path d="M819.494265 860.485514h-27.959237c-5.481882 0-9.925544-4.443662-9.925544-9.925545s4.443662-9.925544 9.925544-9.925544h27.959237c5.481882 0 9.925544 4.443662 9.925544 9.925544s-4.443662 9.925544-9.925544 9.925545z" fill="" p-id="7162"></path><path d="M182.285376 850.559969h559.832851" fill="#FEDEBB" p-id="7163"></path><path d="M742.118227 860.485514H182.285376c-5.481882 0-9.925544-4.443662-9.925544-9.925545s4.443662-9.925544 9.925544-9.925544h559.832851c5.481882 0 9.925544 4.443662 9.925544 9.925544s-4.443662 9.925544-9.925544 9.925545z" fill="" p-id="7164"></path><path d="M75.973315 850.559969h42.263938" fill="#FEDEBB" p-id="7165"></path><path d="M118.237253 860.485514H75.973315c-5.481882 0-9.925544-4.443662-9.925544-9.925545s4.443662-9.925544 9.925544-9.925544h42.264962c5.481882 0 9.925544 4.443662 9.925545 9.925544s-4.444686 9.925544-9.926569 9.925545z" fill="" p-id="7166"></path><path d="M772.401683 436.980946a4.771306 4.771306 0 0 1-4.773353 4.773354 4.770282 4.770282 0 1 1 0-9.541588 4.769258 4.769258 0 0 1 4.773353 4.768234z" fill="#FD5C1E" p-id="7167"></path><path d="M823.020526 381.87851a5.413282 5.413282 0 1 1-10.82554-0.001024 5.413282 5.413282 0 0 1 10.82554 0.001024zM732.669813 208.135409a8.129649 8.129649 0 0 1-8.126578 8.128625 8.128626 8.128626 0 0 1 0-16.256227c4.483594 0 8.126578 3.642984 8.126578 8.127602z" fill="#FDD72C" p-id="7168"></path><path d="M808.231526 211.650407c-11.585262 0-21.011151-9.425888-21.011151-21.010127 0-11.589358 9.425888-21.01627 21.011151-21.01627 11.585262 0 21.013199 9.427936 21.013199 21.01627 0 11.585262-9.426912 21.010127-21.013199 21.010127z m0-35.409026c-7.937159 0-14.394804 6.459693-14.394804 14.399923 0 7.936135 6.457645 14.39378 14.394804 14.39378 7.939207 0 14.396852-6.457645 14.396852-14.39378 0-7.941255-6.457645-14.399923-14.396852-14.399923z" fill="#2BA9FC" p-id="7169"></path><path d="M633.381605 860.485514H264.059001c-31.286864 0-56.741677-25.454813-56.741677-56.741677V496.835234c0-31.286864 25.454813-56.739629 56.741677-56.739629h369.322604c31.286864 0 56.739629 25.452765 56.739629 56.739629v131.336843c0 5.481882-4.443662 9.925544-9.925544 9.925544s-9.925544-4.443662-9.925544-9.925544V496.835234c0-20.34153-16.548035-36.889564-36.889565-36.889564H264.059001c-20.342554 0-36.891612 16.548035-36.891612 36.889564v306.908603c0 20.34153 16.549059 36.891612 36.891612 36.891612h369.322604c20.34153 0 36.889564-16.550082 36.889565-36.891612v-45.526037c0-5.481882 4.443662-9.925544 9.925544-9.925545s9.925544 4.443662 9.925544 9.925545v45.526037c-0.001024 31.286864-25.452765 56.741677-56.740653 56.741677z" fill="" p-id="7170"></path><path d="M680.196714 726.526501a9.925544 9.925544 0 0 1-9.925544-9.925544V671.08823c0-5.481882 4.443662-9.925544 9.925544-9.925544s9.925544 4.443662 9.925544 9.925544v45.513751c-0.001024 5.481882-4.443662 9.92452-9.925544 9.92452z" fill="" p-id="7171"></path></svg>