<?xml version="1.0" standalone="no"?><!DOCTYPE svg PUBLIC "-//W3C//DTD SVG 1.1//EN" "http://www.w3.org/Graphics/SVG/1.1/DTD/svg11.dtd"><svg t="1612589768777" class="icon" viewBox="0 0 1171 1024" version="1.1" xmlns="http://www.w3.org/2000/svg" p-id="3205" xmlns:xlink="http://www.w3.org/1999/xlink" width="228.7109375" height="200"><defs><style type="text/css"></style></defs><path d="M424.50432 968.0896c-27.30496-5.96992-43.79648-11.05408-49.56672-15.37024-6.97344-5.10464-12.22656-20.28032-15.71328-45.87008a210.54464 210.54464 0 0 1-1.77664-21.61152v-10.17344c-3.79904 9.07776-12.27264 14.6688-23.48544 14.6688H256.92672c-15.42144 0-25.68704-10.46528-25.68704-26.15808v-156.9792c0-15.6928 10.28608-26.15808 25.68704-26.15808h77.0816c11.22816 0 19.70688 5.5552 23.48544 14.6688 1.49504 3.65568 2.24256 7.57248 2.2016 11.52512v130.36032c0.97792-9.0112 2.26304-18.46784 3.86048-28.38016 3.79392-23.04512 13.31712-40.4992 28.57472-52.37248a175.96416 175.96416 0 0 1 53.90336-28.06272 839.296 839.296 0 0 1 63.89248-18.74432c1.35168-0.3584 2.67264-0.73216 4.00896-1.11104v-80.29184c0-15.6928 10.2656-26.15808 25.68704-26.15808h78.03904a429.90592 429.90592 0 0 0-0.6144-12.16c-1.27488-14.94528-6.20032-26.53184-14.6688-34.57024a495.09888 495.09888 0 0 0-29.11232-25.25184 57.00608 57.00608 0 0 1-13.30176-18.26816 282.65472 282.65472 0 0 1-6.51776-14.45888h-13.7728c-15.41632 0-25.68704-10.46528-25.68704-26.15808V438.6816c-4.3008-5.59104-8.05376-13.4656-10.97216-23.76704-3.26144-10.69056-4.38272-20.16256-3.42016-28.48768a83.3024 83.3024 0 0 1 5.23264-21.9904 71.35232 71.35232 0 0 1 11.41248-19.67104 439.58784 439.58784 0 0 1 3.84512-71.05024c0.73216-5.75488 1.62816-11.6224 2.71872-17.5872-5.62176-4.59264-8.8832-11.76576-8.8832-20.58752V157.02528c0-15.6928 10.27072-26.15808 25.68704-26.15808h38.15936a167.48544 167.48544 0 0 1 25.65632-23.06048 207.70304 207.70304 0 0 1 91.37664-38.89152 284.91264 284.91264 0 0 1 45.0048-3.71712 209.42336 209.42336 0 0 1 52.86912 6.51776l0.768 0.21504V0H78.98624l0.65024 887.08096H0v107.27936h583.84384a2061.86496 2061.86496 0 0 1-64.04096-9.04704c-36.22912-5.5296-67.9936-11.27424-95.29856-17.22368zM231.23968 157.02528c0-15.6928 10.28608-26.15808 25.68704-26.15808h77.0816c11.22816 0 19.70688 5.57568 23.48544 14.6688 1.49504 3.65568 2.24256 7.57248 2.2016 11.52v78.48448a29.6448 29.6448 0 0 1-2.2016 11.52512c-3.79904 9.07776-12.27264 14.6688-23.48544 14.6688H256.92672c-15.42144 0-25.68704-10.46016-25.68704-26.15808V157.02528z m0 235.50976c0-15.6928 10.28608-26.15808 25.68704-26.15808h77.0816c11.22816 0 19.70688 5.56032 23.48544 14.6688 1.49504 3.65568 2.24256 7.57248 2.2016 11.52512v78.49984a29.6192 29.6192 0 0 1-2.2016 11.52c-3.79904 9.07776-12.27264 14.6688-23.48544 14.6688H256.92672c-15.42144 0-25.68704-10.46528-25.68704-26.15808V392.53504z" fill="#1296DB" p-id="3206"></path><path d="M357.44256 875.06432a29.62944 29.62944 0 0 0 2.2016-11.52512v-26.55232a388.0448 388.0448 0 0 0-2.2016 30.97088v7.10656zM1137.16224 824.07936a178.11456 178.11456 0 0 0-6.95808-34.62144 78.62272 78.62272 0 0 0-28.2112-38.1184 192.85504 192.85504 0 0 0-45.00992-23.82848 506.16832 506.16832 0 0 0-52.48-16.30208 448.7936 448.7936 0 0 1-50.05312-15.68256c-16.59392-6.74816-29.77792-14.2848-39.56224-22.60992-9.7792-8.32-16.8448-17.19808-21.18656-26.62912a81.27488 81.27488 0 0 1-7.36768-28.0064 111.6672 111.6672 0 0 1 1.81248-27.5456c0.9984-6.38976 2.9184-12.5952 5.68832-18.43712a42.97216 42.97216 0 0 1 9.10848-13.04064 92.54912 92.54912 0 0 1 12.8256-10.38336 150.64576 150.64576 0 0 0 15.68256-12.08832 59.392 59.392 0 0 0 13.48096-17.6384c4.00896-7.5264 7.43424-15.28832 10.69568-23.09632a411.6992 411.6992 0 0 0 8.2944-28.01664 45.25056 45.25056 0 0 0 17.42336-9.92768 58.76224 58.76224 0 0 0 13.30176-17.63328c4.00896-7.53152 6.79424-17.50528 8.77056-30.18752a72.59648 72.59648 0 0 0-0.52736-24.448 59.64288 59.64288 0 0 0-6.03136-16.30208 23.41376 23.41376 0 0 0-10.15296-10.77248 392.82176 392.82176 0 0 0-4.5312-72.22272 386.36544 386.36544 0 0 0-16.02048-65.42336 202.35776 202.35776 0 0 0-34.53952-63.6672 141.24032 141.24032 0 0 0-26.5984-24.82688 221.312 221.312 0 0 0-37.7344-22.02112 257.37216 257.37216 0 0 0-44.84096-16.05632l-0.74752-0.19456a201.81504 201.81504 0 0 0-51.03616-6.33856 274.23744 274.23744 0 0 0-43.43296 3.584 200.50944 200.50944 0 0 0-88.19712 37.48864 161.36704 161.36704 0 0 0-24.76032 22.2464h-1.46944a197.42208 197.42208 0 0 0-14.4384 17.93024 201.8048 201.8048 0 0 0-27.98592 58.6752 423.33696 423.33696 0 0 0-10.65984 44.40064c0.42496 0.34304 0.86528 0.65024 1.3056 0.97792a308.05504 308.05504 0 0 0-2.46272 16.00512 424.77056 424.77056 0 0 0-3.71712 68.57216 68.8128 68.8128 0 0 0-11.0336 18.99008 80.4608 80.4608 0 0 0-5.05344 21.18656c-0.93184 8.03328 0.1792 17.1776 3.26144 27.49952a72.46848 72.46848 0 0 0 9.12896 20.91008v2.03776l0.32256 0.44032a82.41664 82.41664 0 0 0 11.96544 12.66688c3.8912 2.85184 8.25344 4.992 12.89216 6.3232a1024.11776 1024.11776 0 0 0 9.17504 27.9552c1.18784 3.0464 2.44736 6.08256 3.73248 9.07776h1.46944c2.01216 4.70528 4.13184 9.35936 6.35904 13.952a55.0912 55.0912 0 0 0 12.8256 17.6384 470.33856 470.33856 0 0 1 28.09856 24.36608c8.2432 7.7568 13.04064 18.93888 14.22848 33.36704 0.26112 4.06016 0.45568 7.95136 0.58368 11.73504 0.17408 4.70528 0.27136 9.23648 0.2816 13.5936a61.79328 61.79328 0 0 1-4.12672 22.52288 63.62112 63.62112 0 0 1-14.6688 21.74464c-7.0912 7.12192-17.01376 14.6688-29.84448 22.58944a191.76448 191.76448 0 0 1-51.79904 22.30784c-1.29024 0.3584-2.56 0.73728-3.88096 1.08032a831.00672 831.00672 0 0 0-61.66016 18.08896 169.68704 169.68704 0 0 0-52.02944 27.08992c-14.6944 11.41248-23.8848 28.25216-27.58144 50.52928a527.5136 527.5136 0 0 0-3.71712 27.38176v25.5744a28.73344 28.73344 0 0 1-2.11968 11.11552v9.7792c0.18432 6.97856 0.72704 13.94176 1.62816 20.864 3.37408 24.69376 8.42752 39.3472 15.1552 44.26752 5.57568 4.16256 21.48352 9.06752 47.84128 14.83264 26.35264 5.77024 57.04704 11.29472 91.97568 16.64512 20.28544 3.26144 40.88832 6.16448 61.80352 8.71936 15.104 1.89952 30.3616 3.67104 45.76768 5.30944 36.75648 3.88096 68.68992 5.93408 95.58016 5.93408 17.69984 0 38.77888-0.8448 62.92992-2.78528 24.16128-1.94048 49.2288-4.06016 74.9824-7.26016 25.74848-3.18976 51.61984-6.38464 77.68064-10.37824 26.06592-3.98848 49.41824-8.15104 70.37952-12.60032 17.84832-3.74784 35.4816-8.42752 52.82816-14.0288 14.40256-4.79744 23.14752-9.30304 26.24-13.53216 4.23936-6.51776 7.552-16.30208 9.63584-28.87168a238.4896 238.4896 0 0 0 3.26144-40.1408c0.04096-13.97248-0.77824-28.05248-2.176-42.33216z" fill="#1296DB" p-id="3207"></path></svg>