<?xml version="1.0" standalone="no"?><!DOCTYPE svg PUBLIC "-//W3C//DTD SVG 1.1//EN" "http://www.w3.org/Graphics/SVG/1.1/DTD/svg11.dtd"><svg t="1612589319366" class="icon" viewBox="0 0 1050 1024" version="1.1" xmlns="http://www.w3.org/2000/svg" p-id="3390" xmlns:xlink="http://www.w3.org/1999/xlink" width="205.078125" height="200"><defs><style type="text/css"></style></defs><path d="M969.383435 708.871615l-314.655771 161.738948a288.189398 288.189398 0 0 1-263.9023 0L75.618209 708.005156c-25.311095-13.023136-56.083505-2.599376-68.791565 23.289358-12.734317 25.914991-2.546863 57.501347 22.711719 70.524483l315.180898 162.605407a388.173475 388.173475 0 0 0 178.044125 43.139138 387.805887 387.805887 0 0 0 177.939099-43.112882l314.603259-161.712692c25.284839-12.99688 35.498548-44.55698 22.843001-70.47197-12.70806-25.914991-43.454214-36.391263-68.791566-23.368127" fill="#45B035" p-id="3391"></path><path d="M28.225547 580.504453l368.113645 189.938238a275.875183 275.875183 0 0 0 126.424194 30.614873c43.401701 0 86.829659-10.239966 126.397937-30.614873l368.271183-190.017007c25.284839-13.049392 35.446036-44.635749 22.737975-70.524483-12.734317-25.914991-43.532983-36.338751-68.791565-23.289358L603.055221 676.62885a175.444749 175.444749 0 0 1-160.636183 0L74.305393 486.690612c-25.311095-13.023136-56.083505-2.625632-68.817822 23.289358-12.734317 25.914991-2.546863 57.47509 22.71172 70.524483" fill="#45B035" p-id="3392"></path><path d="M24.024535 331.883333l456.361146 235.492958a92.290974 92.290974 0 0 0 84.75541 0l456.361145-235.466702c32.032714-16.541483 32.032714-63.409019 0-79.924246L542.376859 4.782064a42.614012 42.614012 0 0 0-39.226946 0L24.024535 251.985343c-32.032714 16.515227-32.032714 63.382763 0 79.924246" fill="#45B035" p-id="3393"></path></svg>