<?xml version="1.0" standalone="no"?><!DOCTYPE svg PUBLIC "-//W3C//DTD SVG 1.1//EN" "http://www.w3.org/Graphics/SVG/1.1/DTD/svg11.dtd"><svg t="1614583568769" class="icon" viewBox="0 0 1024 1024" version="1.1" xmlns="http://www.w3.org/2000/svg" p-id="5027" xmlns:xlink="http://www.w3.org/1999/xlink" width="200" height="200"><defs><style type="text/css"></style></defs><path d="M511.4 512.2m-445 0a445 445 0 1 0 890 0 445 445 0 1 0-890 0Z" fill="#EBF2FF" p-id="5028"></path><path d="M563.9 291.6H348.6c-25.4 0-46 20.6-46 46v398.7h75.7c-8.4-13.7-13.2-29.6-13.2-46.6 0-43 30.4-78.9 72.7-90 17.5-54.8 69.3-94.9 129.3-94.9 13.5 0 26.5 2.1 38.8 5.8v-177c0-23.2-18.8-42-42-42z m-9.2 194.9h-201v-55h201v55z m0-80.4h-201v-55h201v55z" fill="#377FFC" p-id="5029"></path><path d="M743 685.1c0-27.7-24.9-50.3-56-51.1v-0.1h-18.2c-1.1-50.6-42.4-91.4-93.3-91.4s-92.2 40.7-93.3 91.4h-10.4v0.1c-31.1 0.9-56 23.4-56 51.1 0 27.7 24.9 50.3 56 51.1v0.1H687v-0.1c31.1-0.9 56-23.4 56-51.1z" fill="#ABC6F6" p-id="5030"></path></svg>